<?xml version="1.0" standalone="no"?>
<!DOCTYPE svg PUBLIC "-//W3C//DTD SVG 20010904//EN"
 "http://www.w3.org/TR/2001/REC-SVG-20010904/DTD/svg10.dtd">
<svg version="1.0" xmlns="http://www.w3.org/2000/svg"
 width="512.000000pt" height="512.000000pt" viewBox="0 0 512.000000 512.000000"
 preserveAspectRatio="xMidYMid meet">
<metadata>
Created by potrace 1.16, written by Peter Selinger 2001-2019
</metadata>
<g transform="translate(0.000000,512.000000) scale(0.100000,-0.100000)"
fill="#000000" stroke="none">
<path d="M3135 4174 c-63 -11 -112 -13 -165 -8 -41 5 -115 8 -165 8 -96 0
-117 -7 -235 -84 -25 -16 -83 -39 -130 -51 -104 -26 -167 -56 -191 -89 -10
-14 -24 -57 -31 -97 -15 -90 -3 -137 52 -195 22 -23 40 -43 40 -45 0 -1 -225
-3 -500 -3 l-500 0 0 -55 0 -55 -159 0 -159 0 -1 -407 c0 -484 1 -496 37 -510
25 -10 25 -11 5 -12 -13 -1 -30 -12 -38 -25 -14 -21 -15 -67 -10 -398 10 -550
11 -955 3 -963 -3 -4 -30 -12 -60 -19 l-53 -12 55 -12 c30 -7 102 -21 160 -31
58 -11 220 -45 360 -75 140 -31 309 -68 375 -82 66 -14 125 -29 130 -34 19
-15 161 -2 426 38 146 23 360 51 475 62 216 21 315 34 759 94 143 20 305 42
360 49 l100 13 -45 13 c-25 6 -51 14 -57 16 -10 3 -13 55 -13 214 0 166 -3
219 -15 249 -13 32 -15 80 -12 278 3 220 5 244 26 298 19 50 23 87 28 221 5
147 4 164 -15 207 -27 61 -62 79 -168 86 l-82 5 86 126 c96 142 139 227 178
357 23 76 27 108 28 224 1 115 -2 146 -22 210 -59 188 -190 338 -380 434 -124
63 -318 87 -477 60z m-225 -50 c22 -3 40 -9 40 -14 0 -10 -141 -56 -200 -65
-25 -4 -53 -12 -63 -17 -10 -5 -39 -11 -64 -13 -25 -2 -51 -9 -57 -16 -8 -8
-6 -10 9 -6 11 4 33 9 49 13 29 7 29 7 13 -17 -10 -13 -17 -31 -17 -41 0 -14
-5 -15 -31 -8 -17 5 -37 14 -45 21 -20 17 -78 3 -114 -28 -42 -35 -31 -41 17
-9 45 31 78 33 93 7 12 -23 13 -73 3 -87 -5 -5 0 0 10 10 13 14 17 29 13 48
-5 27 -4 28 22 22 15 -4 41 -19 57 -33 17 -15 39 -33 50 -41 20 -15 20 -14 1
8 -23 26 -19 32 22 35 16 1 28 5 26 8 -4 7 20 19 36 19 5 0 10 -8 12 -17 3
-13 9 -7 21 20 15 35 33 54 21 22 -7 -17 40 -95 56 -95 6 0 10 -5 10 -10 0 -7
-14 -8 -37 -4 -34 6 -31 3 29 -30 95 -50 136 -55 191 -22 25 14 54 40 66 58
11 18 21 27 21 20 0 -8 -10 -28 -22 -45 l-21 -32 29 26 c16 15 38 31 49 37 11
6 14 12 8 12 -7 0 -13 8 -13 17 0 9 -8 25 -17 36 -17 19 -17 20 2 10 11 -6 40
-13 65 -16 45 -6 45 -6 15 8 -16 8 -35 14 -42 15 -6 0 -31 19 -55 42 -81 78
-133 85 -244 34 -41 -19 -74 -30 -74 -24 0 19 69 76 106 88 62 21 135 8 196
-33 41 -29 74 -41 149 -56 120 -24 168 -48 241 -122 140 -140 168 -347 74
-544 -43 -91 -107 -161 -225 -244 -105 -75 -137 -113 -201 -241 -80 -159 -150
-238 -239 -268 -42 -15 -160 -16 -197 -2 -26 10 -26 11 -22 88 3 55 12 92 31
132 26 54 91 140 106 140 4 0 6 -41 4 -91 -4 -101 -14 -128 -69 -189 -20 -22
-34 -44 -32 -50 5 -16 94 66 129 119 21 33 40 51 58 54 14 3 27 4 29 2 1 -1
-13 -29 -32 -61 -20 -33 -39 -75 -42 -94 -4 -24 10 -2 45 66 28 56 51 104 51
107 0 3 -12 5 -26 4 -31 -2 -39 12 -22 36 11 15 17 16 46 5 28 -11 34 -10 42
2 14 21 12 36 -2 22 -18 -18 -36 -15 -48 9 -14 25 2 49 34 49 12 0 31 7 42 15
18 15 18 15 -7 9 -35 -8 -43 8 -24 46 12 24 22 30 48 31 30 0 31 1 10 11 -13
6 -23 16 -23 22 0 24 32 56 55 56 13 0 27 5 31 11 4 7 0 9 -14 5 -28 -9 -36 8
-18 43 13 25 25 32 73 41 98 20 269 114 294 162 7 12 -5 7 -35 -16 -24 -18
-78 -50 -119 -69 -118 -56 -177 -65 -177 -28 0 25 24 44 100 80 82 38 135 82
160 132 27 52 25 60 -4 20 -53 -72 -162 -131 -243 -131 -54 0 -112 18 -93 30
6 4 -26 12 -71 18 -46 7 -93 19 -107 28 -27 18 -23 31 5 16 62 -33 204 -20
258 22 30 24 30 24 11 45 l-19 21 72 0 c81 0 139 23 167 65 21 32 9 47 -13 16
-30 -44 -69 -51 -267 -51 -102 0 -207 5 -235 11 -27 6 -101 37 -163 70 -316
167 -373 187 -449 160 l-32 -11 6 48 c12 99 46 129 175 156 37 8 81 20 97 26
17 7 59 16 94 21 41 6 82 20 117 41 29 18 52 34 50 35 -2 2 -28 -8 -60 -22
-87 -38 -134 -30 -51 9 69 33 118 37 235 20z m320 6 c-14 -4 -36 -8 -50 -8
-23 -1 -23 0 -5 8 11 5 34 8 50 8 29 0 29 0 5 -8z m188 -9 c158 -33 318 -127
409 -243 27 -33 28 -40 23 -101 -5 -63 -31 -119 -55 -121 -5 -1 -24 25 -43 57
-33 58 -34 59 -17 93 23 49 17 147 -10 152 -14 3 -16 0 -11 -14 18 -44 18 -84
2 -109 l-17 -25 -44 37 c-43 36 -56 65 -35 78 20 12 10 57 -19 86 -25 24 -38
29 -79 29 -37 0 -69 10 -138 44 -49 24 -96 46 -104 49 -37 13 54 5 138 -12z
m-286 -12 c36 -9 108 -71 108 -91 0 -15 -40 2 -92 39 -33 24 -64 37 -94 41
-30 3 -41 8 -32 13 18 12 65 11 110 -2z m166 2 c9 -5 -3 -10 -33 -14 -50 -7
-76 0 -54 14 18 11 70 11 87 0z m62 -41 c41 -11 95 -49 117 -80 20 -29 12 -33
-25 -15 -17 9 -64 23 -104 31 -81 17 -135 52 -101 65 26 11 73 10 113 -1z
m-506 -51 c-29 -31 -158 -99 -186 -99 -24 0 -30 30 -13 56 10 15 34 29 68 38
50 13 131 32 151 35 6 0 -3 -13 -20 -30z m725 -15 c31 -26 40 -57 21 -69 -23
-14 -75 15 -97 55 l-21 40 33 0 c21 0 45 -9 64 -26z m-541 -16 c13 -13 17 -80
5 -91 -3 -4 -17 11 -31 33 -19 33 -21 44 -12 55 15 18 22 19 38 3z m83 -27
c30 -37 20 -87 -26 -128 -46 -43 -75 -45 -44 -4 23 31 31 106 16 148 -7 18 -5
21 13 16 11 -3 30 -17 41 -32z m-241 -22 c-7 -11 -14 -18 -17 -15 -8 8 5 36
17 36 7 0 7 -6 0 -21z m685 -25 c13 -5 52 -64 42 -64 -2 0 -18 16 -37 35 -34
35 -35 40 -5 29z m334 -143 c21 -41 61 -173 61 -202 0 -9 -9 -28 -21 -43 l-21
-26 -28 20 c-21 15 -29 31 -34 65 -4 25 -12 45 -18 45 -7 0 -9 -15 -5 -40 7
-56 -17 -75 -33 -25 -6 19 -16 35 -22 35 -6 0 4 10 22 23 56 38 75 72 74 133
0 30 1 54 3 54 1 0 12 -18 22 -39z m-1473 -1 c31 -10 69 -28 86 -38 31 -20 31
-20 9 -32 -19 -10 -38 -6 -116 22 -89 31 -94 32 -113 15 -21 -19 -32 -14 -32
15 0 40 81 49 166 18z m1254 16 c0 -3 -4 -8 -10 -11 -5 -3 -10 -1 -10 4 0 6 5
11 10 11 6 0 10 -2 10 -4z m-1306 -101 c4 -19 3 -42 -2 -51 -7 -13 -13 -6 -26
31 -20 59 -20 55 3 55 14 0 21 -10 25 -35z m-67 3 c-3 -8 -6 -5 -6 6 -1 11 2
17 5 13 3 -3 4 -12 1 -19z m297 -7 c3 -4 -3 -16 -13 -25 -17 -15 -20 -15 -42
4 -23 19 -23 20 -5 35 18 14 47 8 60 -14z m-189 10 c3 -5 1 -12 -4 -15 -5 -3
-11 1 -15 9 -6 16 9 21 19 6z m73 -20 c9 -5 11 -17 7 -34 -8 -32 -19 -28 -33
13 -11 31 -2 39 26 21z m212 -49 c0 -4 -4 -13 -8 -20 -19 -28 -87 22 -75 55 3
9 15 7 44 -7 21 -11 39 -24 39 -28z m-222 -102 l-3 -33 -32 46 c-18 25 -33 56
-33 68 0 22 2 22 36 -12 29 -29 35 -42 32 -69z m132 60 c0 -13 -1 -13 -10 0
-5 8 -10 22 -10 30 0 13 1 13 10 0 5 -8 10 -22 10 -30z m-61 -12 c10 -29 10
-31 -3 -18 -17 19 -33 65 -18 56 5 -3 15 -21 21 -38z m202 32 c21 -12 26 -50
6 -50 -24 0 -51 26 -44 44 7 19 12 20 38 6z m999 -15 c-7 -9 -15 -13 -19 -10
-3 3 1 10 9 15 21 14 24 12 10 -5z m-1844 -40 l-69 -45 -248 0 -249 0 0 40 0
39 73 4 c39 1 182 4 317 5 l244 2 -68 -45z m470 18 c10 -16 40 -52 68 -82 l51
-53 -68 36 -69 36 -230 0 -230 0 29 24 c76 64 85 66 264 66 l167 0 18 -27z
m294 -27 c-1 -21 -1 -21 -15 -2 -21 27 -20 53 0 36 8 -7 15 -22 15 -34z m180
0 c0 -21 -11 -25 -36 -14 -15 7 -24 20 -24 35 0 23 1 23 30 8 17 -9 30 -21 30
-29z m-274 -56 c3 0 3 4 -1 9 -15 25 18 18 66 -14 29 -19 57 -36 62 -38 5 -1
11 -42 14 -91 l6 -88 -24 23 c-13 13 -45 42 -71 64 -26 22 -48 47 -50 55 -2 8
-19 24 -38 35 -30 18 -35 26 -38 64 l-3 44 36 -31 c19 -18 38 -32 41 -32z
m229 11 c22 -11 46 -29 53 -40 l12 -21 -51 19 c-63 24 -95 45 -109 71 -10 18
-9 18 22 5 18 -8 51 -23 73 -34z m125 23 c0 -22 -3 -25 -22 -20 -13 3 -26 6
-30 6 -5 0 -8 9 -8 20 0 16 7 20 30 20 26 0 30 -4 30 -26z m120 -4 c0 -28 -45
-38 -70 -15 -30 27 -24 35 25 35 38 0 45 -3 45 -20z m98 3 c-2 -13 -14 -19
-41 -21 -32 -3 -37 0 -37 17 0 18 6 21 41 21 33 0 40 -3 37 -17z m599 -5 c-3
-8 -6 -5 -6 6 -1 11 2 17 5 13 3 -3 4 -12 1 -19z m219 -65 c-9 -100 -22 -148
-46 -171 -10 -9 -24 -39 -30 -66 -12 -54 -41 -116 -63 -134 -8 -7 -36 -23 -63
-37 -44 -22 -48 -23 -60 -7 -11 15 -8 18 27 25 76 16 148 122 119 176 -14 28
-14 29 25 46 51 21 79 87 72 166 -4 50 3 79 21 79 3 0 2 -35 -2 -77z m-71 26
c33 -36 36 -46 31 -78 -3 -19 -14 -47 -24 -61 -23 -31 -84 -52 -127 -44 l-32
6 3 86 4 87 42 21 c24 12 48 22 54 23 7 1 28 -18 49 -40z m-2545 -25 l0 -26
-87 6 c-49 3 -96 6 -105 6 -10 1 -20 5 -23 11 -4 5 -16 9 -28 9 -48 -1 14 -27
117 -50 87 -20 106 -27 110 -44 3 -12 6 -179 6 -373 l0 -351 -142 -4 c-79 -2
-144 -3 -145 -3 -2 0 -5 477 -4 678 l1 167 150 0 150 0 0 -26z m460 -399 l0
-425 -209 0 -209 0 -6 93 c-7 108 -7 738 0 749 3 5 99 8 215 8 l209 0 0 -425z
m519 313 c1 -61 4 -114 6 -117 3 -2 5 48 5 112 0 65 2 117 4 117 2 0 41 -19
86 -42 l81 -43 -3 -345 c-3 -340 -4 -346 -27 -398 -23 -51 -26 -53 -54 -48
-16 3 -47 6 -68 6 l-39 0 -1 208 c-1 114 -5 252 -9 307 -5 73 -7 18 -8 -204
l-2 -304 -82 6 c-46 4 -147 7 -225 7 l-143 0 0 425 0 425 239 0 238 0 2 -112z
m508 35 c120 -38 109 -149 -29 -320 -28 -34 -53 -63 -55 -63 -2 0 -3 90 -3
200 0 227 -7 213 87 183z m-186 -100 l59 -56 0 -139 0 -138 -38 -43 c-21 -23
-50 -57 -65 -75 l-27 -34 0 271 c0 149 3 271 6 271 3 0 32 -25 65 -57z m1167
-85 c7 -81 -52 -134 -137 -122 -47 6 -49 7 -39 30 9 20 13 21 25 8 19 -19 42
-18 65 3 13 12 18 30 18 70 l0 54 33 -3 c29 -3 32 -6 35 -40z m103 5 c-12 -20
-14 -14 -5 12 4 9 9 14 11 11 3 -2 0 -13 -6 -23z m-45 -120 c-13 -27 -32 -57
-41 -68 -16 -19 -17 -19 -3 5 9 14 25 44 37 68 12 23 24 42 26 42 3 0 -6 -21
-19 -47z m-211 -52 c3 -10 3 -25 0 -33 -7 -17 -88 -58 -116 -58 -17 0 -13 9
28 55 50 57 77 68 88 36z m122 -26 c0 -8 -2 -13 -5 -10 -3 2 -17 -21 -33 -53
l-27 -57 -1 53 c-1 50 1 54 32 67 17 8 32 14 33 15 0 0 1 -7 1 -15z m-994 -46
c-10 -17 -36 -52 -58 -78 l-40 -46 40 34 c45 39 55 29 26 -27 -15 -30 -30 -43
-66 -56 -25 -10 -50 -26 -56 -37 -9 -19 -9 -19 23 1 30 18 68 27 68 16 0 -3
-5 -17 -11 -33 -6 -15 -14 -61 -18 -102 l-6 -73 -27 27 c-15 14 -34 45 -42 68
l-14 42 -1 -37 c-1 -20 3 -48 9 -62 14 -39 1 -31 -16 9 -34 83 -9 146 112 285
48 55 89 100 91 100 2 0 -4 -14 -14 -31z m901 -41 c-17 -58 -114 -105 -114
-55 0 31 17 53 65 81 47 29 62 21 49 -26z m86 12 c-12 -16 -24 -30 -26 -30 -3
0 4 14 16 30 12 17 24 30 26 30 3 0 -4 -13 -16 -30z m-245 -26 c9 -4 12 -10 7
-13 -5 -3 -32 -34 -61 -68 l-52 -63 -80 0 -80 0 32 44 c17 25 43 56 58 70 25
23 35 26 138 34 12 1 29 -1 38 -4z m25 -69 c0 -20 -5 -25 -25 -25 -29 0 -31 7
-8 32 22 25 33 23 33 -7z m110 -20 c-17 -18 -27 -22 -36 -14 -17 14 -30 -7
-15 -25 8 -10 6 -17 -8 -30 -17 -16 -19 -15 -24 21 -4 20 -5 37 -4 38 1 0 25
10 52 21 28 11 52 19 54 17 3 -2 -6 -14 -19 -28z m60 31 c0 -3 -4 -8 -10 -11
-5 -3 -10 -1 -10 4 0 6 5 11 10 11 6 0 10 -2 10 -4z m-168 -71 c4 -5 8 -22 8
-36 0 -20 -7 -30 -30 -39 -35 -14 -49 -8 -31 14 7 8 11 23 8 33 -4 16 -6 15
-12 -5 -7 -22 -8 -22 -26 -6 -18 16 -18 18 -3 35 18 20 73 22 86 4z m118 1 c0
-2 -8 -10 -17 -17 -16 -13 -17 -12 -4 4 13 16 21 21 21 13z m-30 -39 c0 -2
-10 -12 -22 -23 l-23 -19 19 23 c18 21 26 27 26 19z m-185 -17 c12 -19 -5 -46
-40 -63 -37 -18 -91 -21 -168 -11 l-46 7 31 38 31 39 93 0 c52 0 96 -4 99 -10z
m96 -61 c-13 -11 -30 -18 -38 -15 -7 3 -12 0 -10 -7 1 -7 -10 -13 -25 -15 -17
-2 -28 2 -28 8 0 7 7 10 15 6 8 -3 15 -1 15 4 0 11 56 38 80 39 10 0 7 -6 -9
-20z m302 10 c-6 -6 -53 -17 -105 -24 -51 -7 -110 -20 -131 -28 -20 -9 -37
-13 -37 -9 0 12 95 41 180 56 99 18 107 19 93 5z m72 -107 c4 -29 4 -79 0
-112 l-7 -60 -29 24 c-92 77 -201 51 -308 -75 -61 -73 -100 -104 -149 -120
-31 -10 -37 -9 -49 7 -33 44 24 180 111 267 65 65 129 93 252 111 55 7 114 20
130 29 34 18 37 14 49 -71z m-668 61 l93 -6 -62 -66 c-34 -36 -65 -68 -70 -70
-16 -6 -97 30 -129 56 l-30 26 38 39 c24 25 43 36 53 32 8 -3 57 -9 107 -11z
m196 -9 c12 -12 -83 -72 -104 -67 -19 5 -22 10 -7 13 4 0 21 14 37 30 28 28
60 38 74 24z m117 -11 c-1 -14 -80 -63 -102 -63 -28 0 -17 11 42 44 49 26 60
30 60 19z m-1580 -39 c0 -3 -18 -26 -39 -52 -64 -76 -210 -327 -197 -339 5 -5
9 1 105 164 39 67 82 134 96 150 l24 28 2 -335 c1 -184 4 -369 8 -410 l6 -75
8 109 c4 60 7 258 7 439 l0 330 98 -7 c177 -13 563 -54 569 -60 4 -3 -13 -23
-37 -43 -24 -21 -60 -63 -81 -95 -42 -66 -103 -224 -94 -246 3 -8 -5 -32 -19
-52 -126 -190 -150 -419 -65 -618 46 -107 153 -243 262 -334 32 -26 56 -48 53
-48 -16 0 -493 -74 -544 -84 l-63 -13 44 46 c84 87 258 293 253 299 -9 8 -32
-15 -184 -185 -79 -90 -151 -163 -160 -163 -13 0 -14 74 -10 698 l6 697 -14
-380 c-7 -209 -11 -506 -9 -660 3 -213 2 -261 -6 -200 -18 151 -45 232 -138
420 -133 270 -146 324 -135 566 6 138 4 165 -10 204 -13 32 -25 47 -42 51 -13
3 -24 12 -24 19 0 27 41 143 54 154 7 6 63 15 122 20 154 12 154 12 154 5z
m-311 -48 c-10 -18 -32 -73 -48 -122 -16 -49 -41 -119 -54 -155 -14 -36 -33
-105 -42 -155 l-16 -89 -48 3 c-72 5 -140 -28 -205 -99 -29 -33 -57 -59 -62
-59 -23 0 -44 60 -44 127 0 124 53 241 160 357 78 83 90 103 90 149 0 19 7 40
16 48 16 13 107 25 211 28 l62 1 -20 -34z m1456 -32 c33 -15 61 -28 63 -30 2
-1 -6 -20 -17 -42 -18 -35 -25 -40 -65 -46 -79 -12 -176 17 -176 52 0 22 23
57 64 98 30 31 31 31 51 14 11 -11 47 -31 80 -46z m-1815 41 c0 -8 -7 -15 -16
-15 -8 0 -13 -4 -10 -9 3 -5 -1 -14 -8 -20 -12 -10 -13 -7 -4 23 11 35 38 50
38 21z m-117 -15 c-3 -11 -14 -20 -24 -20 -11 0 -19 -5 -19 -12 0 -6 -2 -9 -5
-6 -3 3 0 17 6 32 15 31 50 37 42 6z m42 -6 c-9 -14 -14 -28 -11 -31 3 -3 -6
-27 -19 -53 -20 -39 -28 -47 -45 -43 -11 3 -20 14 -20 25 0 15 5 18 19 13 21
-6 47 27 36 45 -9 14 26 70 43 70 12 0 11 -5 -3 -26z m2215 17 c0 -6 -5 -13
-10 -16 -6 -4 -8 -10 -5 -15 3 -4 -3 -14 -13 -21 -15 -13 -16 -12 -3 4 16 21
-1 23 -19 2 -7 -8 -22 -15 -34 -15 -18 1 -16 5 16 35 36 34 68 45 68 26z
m-2380 -21 c-24 -18 -24 -20 -7 -32 16 -12 17 -20 8 -58 -34 -157 -37 -465 -6
-612 30 -141 109 -253 195 -279 l43 -13 -7 -120 c-3 -65 -6 -149 -6 -186 l0
-67 -127 26 -128 26 -3 185 -2 185 64 -96 c35 -52 87 -120 116 -150 l52 -54
-65 85 c-35 47 -90 124 -121 172 -47 73 -55 91 -46 107 14 28 13 71 -5 121
-12 35 -15 107 -15 395 0 195 3 360 6 369 4 11 18 16 43 16 l36 0 -25 -20z
m2249 -7 c-13 -16 -25 -30 -27 -33 -2 -2 -7 2 -11 9 -6 10 -16 3 -37 -25 -38
-53 -49 -64 -34 -35 22 42 92 111 113 111 20 0 20 -1 -4 -27z m-1949 -6 c0
-37 -25 -86 -63 -127 -67 -70 -105 -123 -136 -191 -26 -58 -29 -60 -35 -35
-19 76 73 250 176 332 46 37 58 41 58 21z m1547 -11 c-12 -31 -99 -136 -109
-130 -8 5 34 63 54 72 4 2 17 19 28 38 22 34 37 46 27 20z m-142 -76 c-37 -44
-115 -125 -173 -180 -121 -112 -128 -111 -89 12 29 90 86 180 140 219 35 26
48 29 114 29 l74 0 -66 -80z m-1595 56 c0 -8 -4 -17 -9 -21 -12 -7 -24 12 -16
25 9 15 25 12 25 -4z m2172 -50 c-18 -31 -42 -41 -49 -20 -6 18 36 64 53 57
12 -5 12 -10 -4 -37z m50 31 c-20 -24 -72 -136 -72 -155 0 -11 -7 -23 -16 -26
-27 -10 -29 2 -6 34 12 16 19 36 16 44 -3 9 -2 16 3 16 6 0 24 23 41 50 17 28
34 50 38 50 3 0 2 -6 -4 -13z m-155 -40 c-12 -18 -23 -34 -24 -36 -2 -2 -5 -2
-8 1 -8 8 38 77 47 71 4 -2 -2 -18 -15 -36z m-2121 7 c-4 -9 -9 -15 -11 -12
-3 3 -3 13 1 22 4 9 9 15 11 12 3 -3 3 -13 -1 -22z m2722 -14 c41 -25 42 -58
4 -101 l-29 -32 -11 46 c-11 42 -27 65 -38 55 -2 -2 2 -30 8 -61 10 -49 10
-59 -3 -72 -14 -14 -19 -14 -52 0 -80 33 -141 15 -230 -68 -50 -46 -64 -54
-90 -51 -51 6 -77 24 -77 53 0 39 14 56 30 36 33 -40 129 6 230 111 40 42 87
82 104 90 46 20 116 17 154 -6z m-2726 -42 c-15 -15 -26 -4 -18 18 5 13 9 15
18 6 9 -9 9 -15 0 -24z m2182 13 c10 -15 -12 -61 -29 -61 -18 0 -20 23 -3 50
14 22 24 25 32 11z m-2151 -36 c-20 -41 -26 -40 -17 3 4 18 13 32 20 32 11 0
10 -7 -3 -35z m1822 20 c41 -9 89 -12 117 -9 l47 6 -14 -38 c-8 -22 -19 -57
-25 -79 -9 -35 -24 -51 -121 -125 -61 -47 -118 -85 -127 -85 -35 0 -93 152
-79 206 7 28 103 139 120 139 7 0 44 -7 82 -15z m233 -20 c-6 -14 -13 -23 -16
-21 -7 7 9 46 18 46 5 0 4 -11 -2 -25z m-2088 -20 c0 -8 -4 -17 -10 -20 -6 -4
-10 5 -10 20 0 15 4 24 10 20 6 -3 10 -12 10 -20z m569 -22 c7 -24 9 -105 5
-213 -6 -165 -4 -180 19 -265 13 -49 28 -99 32 -110 7 -18 6 -18 -14 2 -11 12
-27 20 -35 17 -10 -4 -20 13 -34 54 -18 55 -19 61 -4 76 15 15 15 16 -1 16
-27 0 -33 29 -8 46 27 20 27 48 -2 71 -31 24 -32 65 -3 107 36 53 43 133 19
219 -2 9 0 17 6 17 5 0 15 -17 20 -37z m1061 -23 c-33 -38 -60 -60 -73 -60
-18 0 -11 11 38 60 33 33 66 60 73 60 8 0 -9 -27 -38 -60z m1140 -31 c-24 -67
-70 -133 -70 -103 0 11 -7 30 -16 43 -16 23 -15 24 40 75 31 29 57 59 57 67 1
8 4 5 6 -7 2 -11 -5 -45 -17 -75z m-625 25 c0 -19 -6 -30 -17 -32 -19 -4 -24
21 -12 53 10 25 29 12 29 -21z m-1652 -36 c-19 -45 -23 -71 -19 -100 4 -23 2
-38 -4 -38 -20 0 -10 94 15 148 33 71 38 66 8 -10z m1577 58 c0 -3 -4 -8 -10
-11 -5 -3 -10 -1 -10 4 0 6 5 11 10 11 6 0 10 -2 10 -4z m-2080 -21 c0 -8 -4
-15 -10 -15 -5 0 -10 7 -10 15 0 8 5 15 10 15 6 0 10 -7 10 -15z m524 -122
c-18 -38 -18 -38 -22 -10 -2 15 5 51 15 80 l18 52 3 -42 c2 -24 -4 -57 -14
-80z m1681 68 c-3 -12 -13 -21 -21 -21 -17 0 -19 31 -2 48 17 17 32 -1 23 -27z
m-2223 -6 c-2 -14 -6 -25 -8 -25 -2 0 -4 11 -4 25 0 14 4 25 9 25 4 0 6 -11 3
-25z m2158 1 c0 5 5 2 10 -8 7 -11 6 -26 -3 -46 -11 -26 -15 -28 -30 -17 -17
12 -22 41 -11 69 5 13 9 14 20 5 8 -6 14 -8 14 -3z m-93 -18 c-3 -8 -6 -5 -6
6 -1 11 2 17 5 13 3 -3 4 -12 1 -19z m568 8 c56 -24 69 -54 62 -149 -17 -214
-114 -442 -247 -577 -102 -103 -219 -173 -340 -203 l-25 -6 0 121 0 121 28 21
c22 17 43 21 95 21 84 -1 126 -19 130 -58 4 -37 -12 -55 -73 -83 -27 -13 -43
-24 -35 -24 8 0 38 11 66 24 166 77 65 200 -135 166 -63 -10 -74 -10 -115 8
-47 21 -76 61 -76 105 0 37 52 70 155 100 113 32 224 82 306 138 67 45 199
171 199 189 0 6 -26 -15 -57 -46 -137 -135 -265 -206 -473 -264 -96 -26 -253
-38 -275 -20 -25 21 -18 25 39 22 126 -8 301 86 481 259 66 64 134 123 150
132 38 20 95 21 140 3z m-1092 -38 c-18 -18 -36 -29 -39 -25 -10 10 36 57 55
57 11 0 6 -10 -16 -32z m116 -43 c11 -30 32 -73 46 -95 14 -22 25 -41 25 -42
0 -11 -170 -225 -190 -239 -42 -31 -84 -35 -110 -9 -20 20 -22 30 -18 109 5
114 30 165 125 259 41 39 80 72 88 72 7 0 23 -25 34 -55z m337 20 c1 -18 -10
-34 -45 -62 -25 -20 -86 -76 -136 -123 -49 -47 -115 -106 -145 -131 l-55 -44
50 64 c75 96 140 163 240 245 50 41 90 75 90 75 0 1 1 -10 1 -24z m212 -7 c-3
-35 -22 -48 -32 -23 -7 19 10 55 25 55 6 0 9 -14 7 -32z m-91 -54 c-18 -35
-30 -15 -15 26 9 27 12 30 20 16 6 -10 4 -25 -5 -42z m-2100 9 c-3 -10 -5 -4
-5 12 0 17 2 24 5 18 2 -7 2 -21 0 -30z m1473 29 c0 -5 -8 -17 -19 -26 -15
-14 -19 -14 -24 -3 -3 8 0 20 6 26 13 13 37 15 37 3z m760 -13 c0 -5 -7 -9
-15 -9 -9 0 -12 6 -9 15 6 15 24 11 24 -6z m-80 -29 c0 -8 -42 -22 -48 -15 -2
2 2 13 8 25 9 17 14 19 26 9 8 -6 14 -15 14 -19z m120 11 c6 -12 6 -22 1 -25
-5 -4 -11 0 -14 6 -3 10 -8 10 -21 -2 -17 -13 -17 -14 -1 -20 15 -5 15 -8 -3
-30 -22 -27 -43 -20 -25 9 7 11 7 23 2 33 -10 18 4 33 21 23 6 -3 10 1 10 9 0
22 17 20 30 -3z m35 -1 c-3 -5 -10 -10 -16 -10 -5 0 -9 5 -9 10 0 6 7 10 16
10 8 0 12 -4 9 -10z m-890 -29 c-7 -24 -35 -29 -35 -6 0 13 31 38 38 30 2 -2
1 -13 -3 -24z m1325 -246 l0 -275 -67 -72 c-87 -92 -257 -228 -342 -271 -39
-21 -88 -37 -121 -41 l-55 -6 30 22 c77 56 270 271 352 391 59 86 118 234 154
384 29 124 35 143 45 143 2 0 4 -124 4 -275z m-2258 199 c4 -32 10 -70 13 -84
12 -47 -13 -6 -29 49 -19 66 -21 104 -3 99 6 -3 15 -31 19 -64z m1708 46 c0
-35 -21 -60 -42 -49 -18 10 -18 11 2 40 25 34 40 37 40 9z m-2190 -70 c0 -33
-4 -60 -9 -60 -12 0 -25 84 -17 105 13 34 26 12 26 -45z m2113 34 c-6 -17 -15
-18 -31 -2 -19 19 -14 26 12 21 16 -3 23 -10 19 -19z m-738 -11 c-4 -10 -12
-31 -17 -46 -12 -32 -32 -31 -34 1 -1 12 2 21 5 20 3 0 13 0 21 1 12 1 13 3 1
10 -16 11 -6 31 16 31 10 0 13 -5 8 -17z m812 -15 c-3 -8 -6 -5 -6 6 -1 11 2
17 5 13 3 -3 4 -12 1 -19z m-1716 -99 l20 -41 -21 -20 c-29 -27 -22 -60 15
-72 17 -6 32 -11 34 -13 2 -1 -8 -16 -23 -33 -30 -37 -34 -80 -8 -103 10 -9
39 -26 65 -37 47 -21 47 -21 33 -48 -8 -15 -34 -55 -59 -89 l-44 -63 -31 68
c-56 125 -66 246 -35 452 15 103 18 111 25 77 4 -20 17 -56 29 -78z m1599 102
c0 -6 -5 -13 -10 -16 -6 -4 -8 -10 -6 -14 3 -4 1 -13 -4 -21 -17 -27 -33 3
-19 33 12 26 39 38 39 18z m80 -36 c-17 -21 -34 -4 -25 25 6 20 9 21 23 7 13
-13 13 -19 2 -32z m-53 6 c-3 -17 0 -32 6 -34 6 -2 3 -6 -7 -10 -10 -4 -15 -3
-11 3 3 6 1 10 -4 10 -6 0 -11 7 -11 15 0 8 4 15 10 15 5 0 7 7 4 15 -4 8 -1
15 6 15 7 0 9 -11 7 -29z m-1563 3 c13 -5 14 -9 5 -20 -16 -20 -29 -17 -29 6
0 22 1 23 24 14z m1396 -35 c-38 -33 -89 -63 -96 -56 -2 2 18 18 46 36 27 18
52 36 55 42 4 5 12 9 18 9 7 -1 -4 -14 -23 -31z m-605 -9 c3 -5 3 -15 -1 -21
-6 -11 -23 6 -24 24 0 10 18 9 25 -3z m708 -6 c23 -9 21 -17 -8 -31 -14 -6
-23 -8 -20 -3 3 4 -2 13 -9 19 -12 10 -13 8 -9 -8 3 -13 -2 -23 -16 -30 -18
-10 -21 -9 -21 6 0 21 40 65 54 58 6 -3 19 -8 29 -11z m-2014 -41 c25 -50 46
-68 106 -88 57 -19 126 -14 193 15 l42 19 0 -23 c0 -65 -92 -106 -191 -85 -37
8 -53 17 -57 31 -4 15 -7 17 -13 6 -13 -20 -101 70 -93 95 4 13 2 17 -5 13 -6
-4 -11 -1 -11 8 0 8 -3 21 -6 30 -12 33 16 15 35 -21z m321 7 c0 -11 6 -20 13
-20 29 -1 -69 -42 -114 -47 -59 -7 -62 2 -15 51 28 30 40 36 75 36 34 0 41 -3
41 -20z m970 -10 c0 -5 -9 -24 -20 -42 l-21 -33 7 40 c4 22 9 43 11 48 5 9 23
-1 23 -13z m621 -23 c-16 -16 -26 0 -10 19 9 11 15 12 17 4 2 -6 -1 -17 -7
-23z m-1778 -20 c-18 -11 -27 -3 -19 18 5 13 8 14 20 3 12 -11 12 -14 -1 -21z
m1183 7 c-3 -9 -6 -27 -6 -42 0 -24 -1 -25 -16 -11 -12 13 -13 20 -3 42 13 28
35 38 25 11z m394 -158 c-25 -82 -78 -187 -119 -236 l-28 -34 -47 60 c-55 71
-92 158 -78 189 5 11 47 43 93 72 46 28 104 67 129 86 l45 35 13 -51 c12 -45
11 -57 -8 -121z m-1220 123 c0 -20 -24 -26 -35 -9 -8 13 14 42 26 34 5 -3 9
-14 9 -25z m826 -87 c8 -44 -7 -60 -41 -44 -20 9 -25 19 -25 50 0 48 5 53 35
38 16 -7 27 -22 31 -44z m551 38 l86 0 -27 -21 c-53 -42 -25 -130 58 -180 l29
-18 2 -113 c4 -162 5 -158 -69 -158 -118 1 -255 43 -330 104 l-28 22 47 73
c46 72 115 240 115 282 0 15 5 19 16 15 9 -3 54 -6 101 -6z m-1837 -45 c0 -8
5 -15 11 -15 5 0 7 6 3 13 -4 7 -3 9 2 4 5 -5 9 -20 9 -34 1 -23 0 -23 -13 -6
-25 34 -33 53 -22 53 5 0 10 -7 10 -15z m525 -56 c15 -33 25 -63 22 -65 -8 -8
-87 35 -93 51 -6 14 24 75 37 75 3 0 19 -27 34 -61z m33 49 c14 -14 16 -28 2
-28 -5 0 -14 9 -20 20 -12 22 -1 27 18 8z m-248 -18 c0 -11 -6 -20 -14 -20 -7
0 -19 -7 -26 -15 -7 -9 -21 -13 -31 -10 -9 3 -20 1 -24 -5 -4 -7 -12 -7 -25 0
-10 5 -26 7 -34 4 -9 -4 -22 -2 -29 4 -6 6 -29 13 -49 17 -21 4 -38 13 -38 20
0 10 10 10 48 -2 53 -16 130 -12 183 12 19 8 35 14 37 15 1 0 2 -9 2 -20z
m1039 -32 c19 -64 61 -158 93 -205 33 -50 33 -49 8 -63 -17 -9 -24 -7 -40 12
-26 31 -25 41 5 34 23 -6 24 -5 13 19 -10 23 -13 24 -29 9 -16 -15 -19 -14
-33 15 -34 66 -61 221 -38 221 5 0 14 -19 21 -42z m-746 18 c6 -16 -2 -28 -14
-20 -12 7 -11 34 0 34 5 0 11 -6 14 -14z m-537 -41 c-2 -7 2 -16 10 -19 8 -3
14 1 14 9 0 8 5 15 10 15 12 0 12 -3 4 -24 -8 -21 -16 -20 -48 5 -21 16 -24
24 -15 30 17 10 32 1 25 -16z m527 -18 c-3 -5 2 -16 12 -23 10 -7 15 -19 12
-27 -3 -8 -1 -20 4 -28 7 -12 9 -12 9 1 1 11 3 11 11 -3 6 -10 8 -21 5 -24 -8
-8 -47 28 -44 41 1 6 -8 30 -20 53 -27 52 -28 61 -2 38 11 -10 17 -22 13 -28z
m-283 23 c0 -5 -5 -10 -11 -10 -5 0 -7 5 -4 10 3 6 8 10 11 10 2 0 4 -4 4 -10z
m950 -1 c0 -6 -5 -20 -12 -32 -11 -21 -11 -21 -19 -2 -13 33 -10 45 11 45 11
0 20 -5 20 -11z m-630 -27 c0 -15 -2 -15 -10 -2 -13 20 -13 33 0 25 6 -3 10
-14 10 -23z m-495 8 c3 -5 1 -10 -4 -10 -6 0 -11 5 -11 10 0 6 2 10 4 10 3 0
8 -4 11 -10z m50 -18 c1 -12 -4 -22 -12 -22 -7 0 -13 11 -13 26 0 31 23 28 25
-4z m95 24 c0 -12 -13 -36 -19 -36 -4 0 -7 9 -8 20 -1 11 4 20 13 20 8 0 14
-2 14 -4z m1017 -52 c-1 -2 -9 1 -16 5 -9 6 -11 16 -5 32 7 24 7 24 15 -5 5
-17 7 -31 6 -32z m-1064 26 c3 -13 0 -20 -9 -20 -8 0 -14 2 -14 4 0 2 -3 11
-6 20 -4 10 -1 16 9 16 8 0 17 -9 20 -20z m-88 -10 c3 -5 2 -10 -4 -10 -5 0
-13 5 -16 10 -3 6 -2 10 4 10 5 0 13 -4 16 -10z m516 -33 c12 -22 12 -22 -10
-3 -11 11 -21 23 -21 28 0 14 19 -1 31 -25z m2083 5 c-3 -15 -9 -95 -12 -177
l-7 -150 -30 -3 c-39 -4 -320 -41 -365 -49 -32 -5 -28 -1 41 45 137 92 317
264 359 342 15 28 20 25 14 -8z m-1432 -37 c4 -5 8 -16 8 -24 0 -11 -4 -11
-18 2 -10 10 -24 17 -30 17 -7 0 -12 12 -12 27 0 26 0 26 23 7 12 -10 25 -23
29 -29z m-964 -45 c19 -60 35 -205 42 -382 0 -4 -6 -6 -12 -3 -7 2 -57 13
-110 25 l-98 22 0 189 0 189 33 1 c17 0 50 6 72 14 22 7 42 13 45 14 3 1 15
-31 28 -69z m282 -103 c0 -25 -63 -87 -89 -87 -11 0 -36 14 -55 31 l-35 30 61
89 62 89 28 -67 c15 -36 28 -75 28 -85z m54 127 c4 -10 1 -14 -6 -12 -15 5
-23 28 -10 28 5 0 13 -7 16 -16z m651 -41 c5 -15 -11 -18 -20 -3 -3 5 -12 7
-20 3 -8 -3 -15 -1 -15 5 0 6 -3 18 -6 26 -6 14 -2 14 25 -1 17 -10 33 -24 36
-30z m-662 4 c9 -3 17 -11 17 -17 0 -11 -40 8 -52 25 -13 17 -8 31 5 14 7 -8
20 -18 30 -22z m42 -37 c1 -10 -2 -17 -7 -14 -4 3 -8 15 -8 26 0 26 13 15 15
-12z m-29 -37 c-4 -4 -14 1 -22 11 -22 31 -17 43 8 19 12 -13 18 -26 14 -30z
m667 33 c9 -23 -32 -27 -43 -5 -9 16 -7 19 14 19 13 0 26 -6 29 -14z m22 -64
c-9 -2 -23 2 -31 9 -14 12 -14 14 3 20 11 4 23 1 31 -10 11 -13 10 -17 -3 -19z
m-632 14 c4 -10 1 -13 -8 -9 -8 3 -12 9 -9 14 7 12 11 11 17 -5z m-6 -36 c6 0
13 -10 16 -22 6 -21 5 -22 -8 -5 -9 12 -15 14 -20 7 -4 -6 -1 -18 6 -26 10
-12 9 -13 -5 -8 -15 6 -20 17 -17 37 1 4 -5 15 -14 23 -25 25 -17 39 8 16 13
-12 28 -22 34 -22z m816 -4 c34 -24 78 -51 97 -59 19 -9 29 -16 22 -16 -8 -1
-29 -8 -48 -17 -30 -14 -35 -14 -56 0 l-23 16 23 6 c27 8 29 24 2 24 -11 0
-20 -4 -20 -10 0 -15 -21 -12 -41 6 -15 13 -16 21 -7 38 8 17 8 19 -3 9 -18
-18 -54 14 -38 34 17 20 25 17 92 -31z m-793 -206 l47 -105 -112 110 -113 110
28 32 c16 17 31 42 35 54 7 21 11 16 38 -36 16 -33 51 -107 77 -165z m-244
115 c77 -57 269 -240 244 -232 -8 2 -85 19 -170 37 -85 18 -158 35 -161 39 -4
3 -9 62 -12 131 -6 118 -6 124 10 102 9 -13 49 -48 89 -77z m907 80 c10 -24
-14 -29 -36 -6 l-21 21 26 0 c14 0 28 -7 31 -15z m54 -65 c31 -27 32 -30 11
-30 -21 0 -68 35 -68 52 0 16 23 7 57 -22z m703 5 c-7 -9 -15 -13 -19 -10 -3
3 1 10 9 15 21 14 24 12 10 -5z m-1430 -16 c0 -6 -4 -7 -10 -4 -5 3 -10 11
-10 16 0 6 5 7 10 4 6 -3 10 -11 10 -16z m1006 -9 c25 -10 26 -12 12 -27 -19
-18 -33 -12 -41 17 -6 23 -7 23 29 10z m373 -12 c-40 -26 -49 -29 -49 -13 0 9
10 19 23 24 26 10 45 2 26 -11z m-413 -23 c13 -41 13 -41 -43 -17 -47 18 -50
33 -12 43 41 12 44 10 55 -26z m-936 -1 c0 -8 -4 -12 -10 -9 -5 3 -10 10 -10
16 0 5 5 9 10 9 6 0 10 -7 10 -16z m750 -4 c0 -23 -13 -26 -29 -6 -9 11 -9 15
1 19 23 10 28 7 28 -13z m320 5 c10 -12 9 -16 -5 -21 -16 -6 -34 9 -35 29 0
13 27 8 40 -8z m50 0 c7 -9 10 -18 7 -22 -8 -7 -37 15 -37 28 0 14 16 11 30
-6z m64 -8 c12 -19 3 -31 -31 -42 -14 -4 -23 -2 -23 4 0 6 10 11 22 11 17 0
19 3 10 12 -15 15 -16 41 0 36 6 -2 16 -12 22 -21z m99 9 c6 -14 -52 -50 -62
-40 -7 7 21 24 30 18 4 -2 10 0 14 6 6 10 -7 14 -32 11 -7 -1 -13 3 -13 9 0
15 57 12 63 -4z m-470 -28 c18 -13 39 -21 48 -20 10 2 21 -2 25 -9 5 -9 1 -11
-14 -7 -12 3 -23 1 -25 -6 -7 -20 -73 18 -73 43 0 26 1 26 39 -1z m212 0 c17
-26 8 -33 -31 -24 -21 6 -23 9 -14 26 14 26 25 25 45 -2z m66 -26 c-28 -4 -40
6 -21 18 9 6 20 4 29 -3 12 -10 11 -13 -8 -15z m-121 -32 c0 -5 -9 -10 -20
-10 -11 0 -20 5 -20 10 0 6 9 10 20 10 11 0 20 -4 20 -10z m90 -4 c0 -2 -9 -6
-20 -9 -11 -3 -18 -1 -14 4 5 9 34 13 34 5z"/>
<path d="M2286 3906 c-11 -24 -14 -42 -8 -48 12 -12 35 44 29 69 -3 14 -8 8
-21 -21z"/>
<path d="M2346 3924 c-9 -24 -7 -28 9 -14 17 14 20 30 6 30 -5 0 -12 -7 -15
-16z"/>
<path d="M2466 3899 c-29 -22 -35 -59 -11 -59 39 0 85 38 85 71 0 17 -47 9
-74 -12z"/>
<path d="M3131 3749 c-30 -12 -98 -15 -131 -5 l-25 7 25 -15 c43 -26 160 -14
160 16 0 4 -1 8 -2 7 -2 0 -14 -5 -27 -10z"/>
<path d="M3311 3735 c52 -19 119 -54 159 -83 l35 -25 -35 38 c-41 43 -122 85
-165 84 l-30 0 36 -14z"/>
<path d="M3171 3676 c2 -2 33 -6 69 -9 41 -4 56 -3 40 3 -25 8 -117 14 -109 6z"/>
<path d="M3555 3324 c-27 -51 -109 -122 -193 -168 -39 -21 -86 -52 -104 -67
l-33 -29 60 29 c33 16 82 39 109 52 60 29 145 110 170 162 23 50 16 68 -9 21z"/>
<path d="M3035 2658 c-22 -23 -53 -49 -70 -60 -18 -11 -24 -18 -14 -18 24 0
92 53 112 89 10 17 17 31 15 31 -2 -1 -21 -19 -43 -42z"/>
<path d="M2885 2620 c-10 -11 -14 -20 -9 -20 5 0 15 9 22 20 7 11 11 20 9 20
-2 0 -12 -9 -22 -20z"/>
<path d="M3390 4105 c7 -9 15 -13 17 -11 7 7 -7 26 -19 26 -6 0 -6 -6 2 -15z"/>
<path d="M2097 2485 c42 -58 240 -241 318 -294 22 -15 -9 15 -205 198 -74 69
-125 113 -113 96z"/>
<path d="M3309 2503 c-13 -16 -12 -17 4 -4 16 13 21 21 13 21 -2 0 -10 -8 -17
-17z"/>
<path d="M1696 1815 c-3 -8 -1 -15 4 -15 6 0 10 7 10 15 0 8 -2 15 -4 15 -2 0
-6 -7 -10 -15z"/>
<path d="M1710 1759 c0 -11 5 -17 10 -14 6 3 10 13 10 21 0 8 -4 14 -10 14 -5
0 -10 -9 -10 -21z"/>
<path d="M2436 1721 c-4 -7 -5 -15 -2 -18 9 -9 19 4 14 18 -4 11 -6 11 -12 0z"/>
</g>
</svg>